<?xml version="1.0" encoding="UTF-8" standalone="no"?>
<!-- Created with Inkscape (http://www.inkscape.org/) -->

<svg
   xmlns:dc="http://purl.org/dc/elements/1.1/"
   xmlns:cc="http://creativecommons.org/ns#"
   xmlns:rdf="http://www.w3.org/1999/02/22-rdf-syntax-ns#"
   xmlns:svg="http://www.w3.org/2000/svg"
   xmlns="http://www.w3.org/2000/svg"
   xmlns:sodipodi="http://sodipodi.sourceforge.net/DTD/sodipodi-0.dtd"
   xmlns:inkscape="http://www.inkscape.org/namespaces/inkscape"
   width="75mm"
   height="11.060423mm"
   viewBox="0 0 75 11.060423"
   version="1.1"
   id="svg8"
   sodipodi:docname="indic-tours-logo-2.svg"
   inkscape:export-filename="E:\inkscape-logos\indic-tours-png-2.png"
   inkscape:export-xdpi="59.776676"
   inkscape:export-ydpi="59.776676"
   inkscape:version="0.92.1 r15371">
  <defs
     id="defs2">
    <filter
       inkscape:collect="always"
       style="color-interpolation-filters:sRGB"
       id="filter4699"
       x="-0.01349358"
       width="1.0269872"
       y="-0.10841264"
       height="1.2168252">
      <feGaussianBlur
         inkscape:collect="always"
         stdDeviation="0.69786932"
         id="feGaussianBlur4701" />
    </filter>
  </defs>
  <sodipodi:namedview
     id="base"
     pagecolor="#ffffff"
     bordercolor="#666666"
     borderopacity="1.0"
     inkscape:pageopacity="0.0"
     inkscape:pageshadow="2"
     inkscape:zoom="1"
     inkscape:cx="217.08218"
     inkscape:cy="46.864407"
     inkscape:document-units="mm"
     inkscape:current-layer="layer1"
     showgrid="false"
     inkscape:window-width="1366"
     inkscape:window-height="705"
     inkscape:window-x="-8"
     inkscape:window-y="-8"
     inkscape:window-maximized="1"
     fit-margin-top="0"
     fit-margin-left="0"
     fit-margin-right="0"
     fit-margin-bottom="0" />
  <metadata
     id="metadata5">
    <rdf:RDF>
      <cc:Work
         rdf:about="">
        <dc:format>image/svg+xml</dc:format>
        <dc:type
           rdf:resource="http://purl.org/dc/dcmitype/StillImage" />
        <dc:title></dc:title>
      </cc:Work>
    </rdf:RDF>
  </metadata>
  <g
     inkscape:label="Layer 1"
     inkscape:groupmode="layer"
     id="layer1"
     transform="translate(-27.750114,-138.56346)">
    <g
       id="g4729"
       transform="matrix(0.58835314,0,0,0.58835314,11.423247,61.592204)">
      <g
         transform="translate(0.4002673,0.5998063)"
         style="opacity:0.75;fill:#000000;filter:url(#filter4699)"
         id="g4697">
        <g
           transform="translate(-1.0583333,-6.0854163)"
           id="g4683"
           style="fill:#000000;fill-opacity:1">
          <path
             d="m 30.083066,153.23604 v -14.45631 h 3.107709 v 14.45631 z"
             style="font-style:normal;font-variant:normal;font-weight:bold;font-stretch:normal;font-size:20.3341465px;line-height:1.25;font-family:Heebo;-inkscape-font-specification:'Heebo, Bold';font-variant-ligatures:normal;font-variant-caps:normal;font-variant-numeric:normal;font-feature-settings:normal;text-align:start;letter-spacing:2.71197939px;word-spacing:-2.87866664px;writing-mode:lr-tb;text-anchor:start;fill:#000000;fill-opacity:1;stroke:none;stroke-width:0.50835365"
             id="path4673"
             inkscape:connector-curvature="0" />
          <path
             d="m 44.352148,142.29452 q 1.618391,0 2.502053,0.97302 0.883661,0.96309 0.883661,3.15735 v 6.81115 H 44.73937 v -6.82108 q 0,-0.95316 -0.40708,-1.32052 -0.40708,-0.3773 -1.260955,-0.3773 -0.585799,0 -1.022665,0.24822 -0.426938,0.24822 -0.695015,0.70495 v 7.56573 H 38.355163 V 142.4931 h 2.809845 l 0.09929,1.24109 q 0.565941,-0.70494 1.350315,-1.07231 0.784373,-0.36736 1.737537,-0.36736 z"
             style="font-style:normal;font-variant:normal;font-weight:bold;font-stretch:normal;font-size:20.3341465px;line-height:1.25;font-family:Heebo;-inkscape-font-specification:'Heebo, Bold';font-variant-ligatures:normal;font-variant-caps:normal;font-variant-numeric:normal;font-feature-settings:normal;text-align:start;letter-spacing:2.71197939px;word-spacing:-2.87866664px;writing-mode:lr-tb;text-anchor:start;fill:#000000;fill-opacity:1;stroke:none;stroke-width:0.50835365"
             id="path4675"
             inkscape:connector-curvature="0" />
          <path
             d="m 61.877872,137.98543 v 15.25061 h -2.700629 l -0.148931,-1.15174 q -1.052451,1.35031 -2.720487,1.35031 -1.30067,0 -2.253833,-0.69501 -0.943235,-0.70494 -1.439674,-1.93611 -0.48651,-1.23117 -0.48651,-2.80985 v -0.2085 q 0,-1.63825 0.48651,-2.87935 0.496439,-1.2411 1.439674,-1.92618 0.953163,-0.68509 2.273691,-0.68509 1.529032,0 2.551697,1.16167 v -5.47076 z m -4.80553,13.02656 q 1.260955,0 1.807038,-1.07231 v -4.15023 q -0.516297,-1.07231 -1.787181,-1.07231 -1.022665,0 -1.499246,0.83402 -0.466653,0.83402 -0.466653,2.23398 v 0.2085 q 0,1.3801 0.456724,2.20419 0.466653,0.81416 1.489318,0.81416 z"
             style="font-style:normal;font-variant:normal;font-weight:bold;font-stretch:normal;font-size:20.3341465px;line-height:1.25;font-family:Heebo;-inkscape-font-specification:'Heebo, Bold';font-variant-ligatures:normal;font-variant-caps:normal;font-variant-numeric:normal;font-feature-settings:normal;text-align:start;letter-spacing:2.71197939px;word-spacing:-2.87866664px;writing-mode:lr-tb;text-anchor:start;fill:#000000;fill-opacity:1;stroke:none;stroke-width:0.50835365"
             id="path4677"
             inkscape:connector-curvature="0" />
          <path
             d="m 68.402504,138.17408 q 0.754587,0 1.211311,0.43686 0.466653,0.42694 0.466653,1.1021 0,0.67515 -0.466653,1.11202 -0.456724,0.42694 -1.211311,0.42694 -0.744659,0 -1.211312,-0.42694 -0.456724,-0.43687 -0.456724,-1.11202 0,-0.67516 0.456724,-1.1021 0.466653,-0.43686 1.211312,-0.43686 z m -1.489318,15.06196 V 142.4931 h 3.008421 v 10.74294 z"
             style="font-style:normal;font-variant:normal;font-weight:bold;font-stretch:normal;font-size:20.3341465px;line-height:1.25;font-family:Heebo;-inkscape-font-specification:'Heebo, Bold';font-variant-ligatures:normal;font-variant-caps:normal;font-variant-numeric:normal;font-feature-settings:normal;text-align:start;letter-spacing:2.71197939px;word-spacing:-2.87866664px;writing-mode:lr-tb;text-anchor:start;fill:#000000;fill-opacity:1;stroke:none;stroke-width:0.50835365"
             id="path4679"
             inkscape:connector-curvature="0" />
          <path
             d="m 83.922611,149.47303 q 0,1.14181 -0.595727,2.04533 -0.595727,0.90352 -1.618392,1.40989 -1.012736,0.50636 -2.253834,0.50636 -1.618391,0 -2.740344,-0.70494 -1.121952,-0.70494 -1.687893,-1.93611 -0.556011,-1.23117 -0.556011,-2.79992 v -0.25815 q 0,-1.56874 0.556011,-2.79991 0.565941,-1.23117 1.677965,-1.93612 1.121952,-0.70494 2.730415,-0.70494 1.320528,0 2.333264,0.5163 1.022664,0.50636 1.588605,1.46946 0.565941,0.95316 0.565941,2.25383 h -2.809846 q -0.0099,-0.7943 -0.466653,-1.3106 -0.456724,-0.5163 -1.270884,-0.5163 -1.092166,0 -1.499246,0.82409 -0.40708,0.81416 -0.40708,2.20419 v 0.25815 q 0,1.41982 0.397151,2.22405 0.40708,0.80423 1.529033,0.80423 0.774445,0 1.241098,-0.41701 0.466652,-0.41701 0.476581,-1.13188 z"
             style="font-style:normal;font-variant:normal;font-weight:bold;font-stretch:normal;font-size:20.3341465px;line-height:1.25;font-family:Heebo;-inkscape-font-specification:'Heebo, Bold';font-variant-ligatures:normal;font-variant-caps:normal;font-variant-numeric:normal;font-feature-settings:normal;text-align:start;letter-spacing:2.71197939px;word-spacing:-2.87866664px;writing-mode:lr-tb;text-anchor:start;fill:#000000;fill-opacity:1;stroke:none;stroke-width:0.50835365"
             id="path4681"
             inkscape:connector-curvature="0" />
        </g>
        <g
           transform="translate(-1.0583333,-6.0854163)"
           id="g4695"
           style="fill:#000000;fill-opacity:1">
          <path
             d="m 103.97235,141.30164 h -4.40838 v 11.9344 h -3.107709 v -11.9344 h -4.338878 v -2.52191 h 7.446587 4.40838 z"
             style="font-style:normal;font-variant:normal;font-weight:bold;font-stretch:normal;font-size:20.3341465px;line-height:1.25;font-family:Heebo;-inkscape-font-specification:'Heebo, Bold';font-variant-ligatures:normal;font-variant-caps:normal;font-variant-numeric:normal;font-feature-settings:normal;text-align:start;letter-spacing:2.71197939px;word-spacing:-2.87866664px;writing-mode:lr-tb;text-anchor:start;fill:#000000;fill-opacity:1;stroke:none;stroke-width:0.50835365"
             id="path4685"
             inkscape:connector-curvature="0" />
          <path
             d="m 106.57511,147.76528 q 0,-1.57868 0.59573,-2.81978 0.60565,-1.24109 1.75739,-1.94604 1.15174,-0.70494 2.75028,-0.70494 1.60846,0 2.7602,0.70494 1.16166,0.70495 1.75739,1.94604 0.60566,1.2411 0.60566,2.81978 v 0.2085 q 0,1.57868 -0.60566,2.81978 -0.59573,1.23117 -1.74746,1.93611 -1.15174,0.70494 -2.75028,0.70494 -1.60846,0 -2.77013,-0.70494 -1.15174,-0.70494 -1.75739,-1.93611 -0.59573,-1.2411 -0.59573,-2.81978 z m 2.99849,0.2085 q 0,1.39003 0.50637,2.22405 0.50637,0.82409 1.61839,0.82409 1.09217,0 1.59854,-0.83402 0.50637,-0.83402 0.50637,-2.21412 v -0.2085 q 0,-1.37017 -0.50637,-2.21412 -0.50637,-0.84395 -1.61839,-0.84395 -1.09217,0 -1.59854,0.85388 -0.50637,0.84395 -0.50637,2.20419 z"
             style="font-style:normal;font-variant:normal;font-weight:bold;font-stretch:normal;font-size:20.3341465px;line-height:1.25;font-family:Heebo;-inkscape-font-specification:'Heebo, Bold';font-variant-ligatures:normal;font-variant-caps:normal;font-variant-numeric:normal;font-feature-settings:normal;text-align:start;letter-spacing:2.71197939px;word-spacing:-2.87866664px;writing-mode:lr-tb;text-anchor:start;fill:#000000;fill-opacity:1;stroke:none;stroke-width:0.50835365"
             id="path4687"
             inkscape:connector-curvature="0" />
          <path
             d="m 130.52476,142.4931 v 10.74294 h -2.80985 l -0.0794,-1.12195 q -0.50637,0.63544 -1.2411,0.98295 -0.73473,0.33757 -1.67796,0.33757 -1.67797,0 -2.63113,-0.97302 -0.94323,-0.97302 -0.94323,-3.01835 v -6.95014 h 2.98856 v 6.97 q 0,0.7943 0.38722,1.1716 0.39715,0.37729 1.09217,0.37729 1.3801,0 1.91625,-0.96309 v -7.5558 z"
             style="font-style:normal;font-variant:normal;font-weight:bold;font-stretch:normal;font-size:20.3341465px;line-height:1.25;font-family:Heebo;-inkscape-font-specification:'Heebo, Bold';font-variant-ligatures:normal;font-variant-caps:normal;font-variant-numeric:normal;font-feature-settings:normal;text-align:start;letter-spacing:2.71197939px;word-spacing:-2.87866664px;writing-mode:lr-tb;text-anchor:start;fill:#000000;fill-opacity:1;stroke:none;stroke-width:0.50835365"
             id="path4689"
             inkscape:connector-curvature="0" />
          <path
             d="m 140.61382,142.29452 q 0.22836,0 0.48651,0.0397 0.25815,0.0298 0.41701,0.0794 l -0.0397,2.8992 q -0.57587,-0.0794 -1.06238,-0.0794 -1.60847,0 -2.09498,1.06238 v 6.94022 h -2.99849 V 142.4931 h 2.81977 l 0.0894,1.30067 q 0.39715,-0.72481 1.00281,-1.11203 0.61558,-0.38722 1.3801,-0.38722 z"
             style="font-style:normal;font-variant:normal;font-weight:bold;font-stretch:normal;font-size:20.3341465px;line-height:1.25;font-family:Heebo;-inkscape-font-specification:'Heebo, Bold';font-variant-ligatures:normal;font-variant-caps:normal;font-variant-numeric:normal;font-feature-settings:normal;text-align:start;letter-spacing:2.71197939px;word-spacing:-2.87866664px;writing-mode:lr-tb;text-anchor:start;fill:#000000;fill-opacity:1;stroke:none;stroke-width:0.50835365"
             id="path4691"
             inkscape:connector-curvature="0" />
          <path
             d="m 149.12421,148.93688 q -3.81265,-0.81416 -3.81265,-3.28643 0,-0.91345 0.51629,-1.67797 0.52623,-0.76451 1.50918,-1.22124 0.98295,-0.45672 2.29355,-0.45672 1.3801,0 2.41269,0.4468 1.0326,0.43686 1.58861,1.23116 0.55601,0.78438 0.55601,1.79711 h -2.99849 q 0,-0.64537 -0.38723,-1.0028 -0.38722,-0.36737 -1.18152,-0.36737 -0.6553,0 -1.05245,0.30779 -0.38722,0.3078 -0.38722,0.79431 0,0.46665 0.43686,0.75458 0.4468,0.28794 1.50918,0.48651 1.27088,0.2383 2.15454,0.62552 0.88366,0.37729 1.39996,1.05245 0.52623,0.67516 0.52623,1.71768 0,0.94323 -0.56594,1.69782 -0.55602,0.74466 -1.59854,1.1716 -1.03259,0.42693 -2.40276,0.42693 -1.44961,0 -2.51198,-0.52622 -1.05246,-0.53616 -1.60847,-1.37017 -0.54608,-0.83402 -0.54608,-1.73754 h 2.8297 q 0.0298,0.77444 0.55601,1.15174 0.52623,0.36736 1.35032,0.36736 0.76451,0 1.17159,-0.28793 0.41701,-0.29786 0.41701,-0.7943 0,-0.3078 -0.18864,-0.5163 -0.17872,-0.21843 -0.6553,-0.40708 -0.46666,-0.18865 -1.33046,-0.37729 z"
             style="font-style:normal;font-variant:normal;font-weight:bold;font-stretch:normal;font-size:20.3341465px;line-height:1.25;font-family:Heebo;-inkscape-font-specification:'Heebo, Bold';font-variant-ligatures:normal;font-variant-caps:normal;font-variant-numeric:normal;font-feature-settings:normal;text-align:start;letter-spacing:2.71197939px;word-spacing:-2.87866664px;writing-mode:lr-tb;text-anchor:start;fill:#000000;fill-opacity:1;stroke:none;stroke-width:0.50835365"
             id="path4693"
             inkscape:connector-curvature="0" />
        </g>
      </g>
      <g
         id="g4671">
        <g
           style="fill:#dc2f02;fill-opacity:1"
           id="g4631"
           transform="translate(-1.0583333,-6.0854163)">
          <path
             inkscape:connector-curvature="0"
             id="path4621"
             style="font-style:normal;font-variant:normal;font-weight:bold;font-stretch:normal;font-size:20.3341465px;line-height:1.25;font-family:Heebo;-inkscape-font-specification:'Heebo, Bold';font-variant-ligatures:normal;font-variant-caps:normal;font-variant-numeric:normal;font-feature-settings:normal;text-align:start;letter-spacing:2.71197939px;word-spacing:-2.87866664px;writing-mode:lr-tb;text-anchor:start;fill:#dc2f02;fill-opacity:1;stroke:none;stroke-width:0.50835365"
             d="m 30.083066,153.23604 v -14.45631 h 3.107709 v 14.45631 z" />
          <path
             inkscape:connector-curvature="0"
             id="path4623"
             style="font-style:normal;font-variant:normal;font-weight:bold;font-stretch:normal;font-size:20.3341465px;line-height:1.25;font-family:Heebo;-inkscape-font-specification:'Heebo, Bold';font-variant-ligatures:normal;font-variant-caps:normal;font-variant-numeric:normal;font-feature-settings:normal;text-align:start;letter-spacing:2.71197939px;word-spacing:-2.87866664px;writing-mode:lr-tb;text-anchor:start;fill:#dc2f02;fill-opacity:1;stroke:none;stroke-width:0.50835365"
             d="m 44.352148,142.29452 q 1.618391,0 2.502053,0.97302 0.883661,0.96309 0.883661,3.15735 v 6.81115 H 44.73937 v -6.82108 q 0,-0.95316 -0.40708,-1.32052 -0.40708,-0.3773 -1.260955,-0.3773 -0.585799,0 -1.022665,0.24822 -0.426938,0.24822 -0.695015,0.70495 v 7.56573 H 38.355163 V 142.4931 h 2.809845 l 0.09929,1.24109 q 0.565941,-0.70494 1.350315,-1.07231 0.784373,-0.36736 1.737537,-0.36736 z" />
          <path
             inkscape:connector-curvature="0"
             id="path4625"
             style="font-style:normal;font-variant:normal;font-weight:bold;font-stretch:normal;font-size:20.3341465px;line-height:1.25;font-family:Heebo;-inkscape-font-specification:'Heebo, Bold';font-variant-ligatures:normal;font-variant-caps:normal;font-variant-numeric:normal;font-feature-settings:normal;text-align:start;letter-spacing:2.71197939px;word-spacing:-2.87866664px;writing-mode:lr-tb;text-anchor:start;fill:#dc2f02;fill-opacity:1;stroke:none;stroke-width:0.50835365"
             d="m 61.877872,137.98543 v 15.25061 h -2.700629 l -0.148931,-1.15174 q -1.052451,1.35031 -2.720487,1.35031 -1.30067,0 -2.253833,-0.69501 -0.943235,-0.70494 -1.439674,-1.93611 -0.48651,-1.23117 -0.48651,-2.80985 v -0.2085 q 0,-1.63825 0.48651,-2.87935 0.496439,-1.2411 1.439674,-1.92618 0.953163,-0.68509 2.273691,-0.68509 1.529032,0 2.551697,1.16167 v -5.47076 z m -4.80553,13.02656 q 1.260955,0 1.807038,-1.07231 v -4.15023 q -0.516297,-1.07231 -1.787181,-1.07231 -1.022665,0 -1.499246,0.83402 -0.466653,0.83402 -0.466653,2.23398 v 0.2085 q 0,1.3801 0.456724,2.20419 0.466653,0.81416 1.489318,0.81416 z" />
          <path
             inkscape:connector-curvature="0"
             id="path4627"
             style="font-style:normal;font-variant:normal;font-weight:bold;font-stretch:normal;font-size:20.3341465px;line-height:1.25;font-family:Heebo;-inkscape-font-specification:'Heebo, Bold';font-variant-ligatures:normal;font-variant-caps:normal;font-variant-numeric:normal;font-feature-settings:normal;text-align:start;letter-spacing:2.71197939px;word-spacing:-2.87866664px;writing-mode:lr-tb;text-anchor:start;fill:#dc2f02;fill-opacity:1;stroke:none;stroke-width:0.50835365"
             d="m 68.402504,138.17408 q 0.754587,0 1.211311,0.43686 0.466653,0.42694 0.466653,1.1021 0,0.67515 -0.466653,1.11202 -0.456724,0.42694 -1.211311,0.42694 -0.744659,0 -1.211312,-0.42694 -0.456724,-0.43687 -0.456724,-1.11202 0,-0.67516 0.456724,-1.1021 0.466653,-0.43686 1.211312,-0.43686 z m -1.489318,15.06196 V 142.4931 h 3.008421 v 10.74294 z" />
          <path
             inkscape:connector-curvature="0"
             id="path4629"
             style="font-style:normal;font-variant:normal;font-weight:bold;font-stretch:normal;font-size:20.3341465px;line-height:1.25;font-family:Heebo;-inkscape-font-specification:'Heebo, Bold';font-variant-ligatures:normal;font-variant-caps:normal;font-variant-numeric:normal;font-feature-settings:normal;text-align:start;letter-spacing:2.71197939px;word-spacing:-2.87866664px;writing-mode:lr-tb;text-anchor:start;fill:#dc2f02;fill-opacity:1;stroke:none;stroke-width:0.50835365"
             d="m 83.922611,149.47303 q 0,1.14181 -0.595727,2.04533 -0.595727,0.90352 -1.618392,1.40989 -1.012736,0.50636 -2.253834,0.50636 -1.618391,0 -2.740344,-0.70494 -1.121952,-0.70494 -1.687893,-1.93611 -0.556011,-1.23117 -0.556011,-2.79992 v -0.25815 q 0,-1.56874 0.556011,-2.79991 0.565941,-1.23117 1.677965,-1.93612 1.121952,-0.70494 2.730415,-0.70494 1.320528,0 2.333264,0.5163 1.022664,0.50636 1.588605,1.46946 0.565941,0.95316 0.565941,2.25383 h -2.809846 q -0.0099,-0.7943 -0.466653,-1.3106 -0.456724,-0.5163 -1.270884,-0.5163 -1.092166,0 -1.499246,0.82409 -0.40708,0.81416 -0.40708,2.20419 v 0.25815 q 0,1.41982 0.397151,2.22405 0.40708,0.80423 1.529033,0.80423 0.774445,0 1.241098,-0.41701 0.466652,-0.41701 0.476581,-1.13188 z" />
        </g>
        <g
           style="fill:#03071e;fill-opacity:1"
           id="g4643"
           transform="translate(-1.0583333,-6.0854163)">
          <path
             inkscape:connector-curvature="0"
             id="path4633"
             style="font-style:normal;font-variant:normal;font-weight:bold;font-stretch:normal;font-size:20.3341465px;line-height:1.25;font-family:Heebo;-inkscape-font-specification:'Heebo, Bold';font-variant-ligatures:normal;font-variant-caps:normal;font-variant-numeric:normal;font-feature-settings:normal;text-align:start;letter-spacing:2.71197939px;word-spacing:-2.87866664px;writing-mode:lr-tb;text-anchor:start;fill:#03071e;fill-opacity:1;stroke:none;stroke-width:0.50835365"
             d="m 103.97235,141.30164 h -4.40838 v 11.9344 h -3.107709 v -11.9344 h -4.338878 v -2.52191 h 7.446587 4.40838 z" />
          <path
             inkscape:connector-curvature="0"
             id="path4635"
             style="font-style:normal;font-variant:normal;font-weight:bold;font-stretch:normal;font-size:20.3341465px;line-height:1.25;font-family:Heebo;-inkscape-font-specification:'Heebo, Bold';font-variant-ligatures:normal;font-variant-caps:normal;font-variant-numeric:normal;font-feature-settings:normal;text-align:start;letter-spacing:2.71197939px;word-spacing:-2.87866664px;writing-mode:lr-tb;text-anchor:start;fill:#03071e;fill-opacity:1;stroke:none;stroke-width:0.50835365"
             d="m 106.57511,147.76528 q 0,-1.57868 0.59573,-2.81978 0.60565,-1.24109 1.75739,-1.94604 1.15174,-0.70494 2.75028,-0.70494 1.60846,0 2.7602,0.70494 1.16166,0.70495 1.75739,1.94604 0.60566,1.2411 0.60566,2.81978 v 0.2085 q 0,1.57868 -0.60566,2.81978 -0.59573,1.23117 -1.74746,1.93611 -1.15174,0.70494 -2.75028,0.70494 -1.60846,0 -2.77013,-0.70494 -1.15174,-0.70494 -1.75739,-1.93611 -0.59573,-1.2411 -0.59573,-2.81978 z m 2.99849,0.2085 q 0,1.39003 0.50637,2.22405 0.50637,0.82409 1.61839,0.82409 1.09217,0 1.59854,-0.83402 0.50637,-0.83402 0.50637,-2.21412 v -0.2085 q 0,-1.37017 -0.50637,-2.21412 -0.50637,-0.84395 -1.61839,-0.84395 -1.09217,0 -1.59854,0.85388 -0.50637,0.84395 -0.50637,2.20419 z" />
          <path
             inkscape:connector-curvature="0"
             id="path4637"
             style="font-style:normal;font-variant:normal;font-weight:bold;font-stretch:normal;font-size:20.3341465px;line-height:1.25;font-family:Heebo;-inkscape-font-specification:'Heebo, Bold';font-variant-ligatures:normal;font-variant-caps:normal;font-variant-numeric:normal;font-feature-settings:normal;text-align:start;letter-spacing:2.71197939px;word-spacing:-2.87866664px;writing-mode:lr-tb;text-anchor:start;fill:#03071e;fill-opacity:1;stroke:none;stroke-width:0.50835365"
             d="m 130.52476,142.4931 v 10.74294 h -2.80985 l -0.0794,-1.12195 q -0.50637,0.63544 -1.2411,0.98295 -0.73473,0.33757 -1.67796,0.33757 -1.67797,0 -2.63113,-0.97302 -0.94323,-0.97302 -0.94323,-3.01835 v -6.95014 h 2.98856 v 6.97 q 0,0.7943 0.38722,1.1716 0.39715,0.37729 1.09217,0.37729 1.3801,0 1.91625,-0.96309 v -7.5558 z" />
          <path
             inkscape:connector-curvature="0"
             id="path4639"
             style="font-style:normal;font-variant:normal;font-weight:bold;font-stretch:normal;font-size:20.3341465px;line-height:1.25;font-family:Heebo;-inkscape-font-specification:'Heebo, Bold';font-variant-ligatures:normal;font-variant-caps:normal;font-variant-numeric:normal;font-feature-settings:normal;text-align:start;letter-spacing:2.71197939px;word-spacing:-2.87866664px;writing-mode:lr-tb;text-anchor:start;fill:#03071e;fill-opacity:1;stroke:none;stroke-width:0.50835365"
             d="m 140.61382,142.29452 q 0.22836,0 0.48651,0.0397 0.25815,0.0298 0.41701,0.0794 l -0.0397,2.8992 q -0.57587,-0.0794 -1.06238,-0.0794 -1.60847,0 -2.09498,1.06238 v 6.94022 h -2.99849 V 142.4931 h 2.81977 l 0.0894,1.30067 q 0.39715,-0.72481 1.00281,-1.11203 0.61558,-0.38722 1.3801,-0.38722 z" />
          <path
             inkscape:connector-curvature="0"
             id="path4641"
             style="font-style:normal;font-variant:normal;font-weight:bold;font-stretch:normal;font-size:20.3341465px;line-height:1.25;font-family:Heebo;-inkscape-font-specification:'Heebo, Bold';font-variant-ligatures:normal;font-variant-caps:normal;font-variant-numeric:normal;font-feature-settings:normal;text-align:start;letter-spacing:2.71197939px;word-spacing:-2.87866664px;writing-mode:lr-tb;text-anchor:start;fill:#03071e;fill-opacity:1;stroke:none;stroke-width:0.50835365"
             d="m 149.12421,148.93688 q -3.81265,-0.81416 -3.81265,-3.28643 0,-0.91345 0.51629,-1.67797 0.52623,-0.76451 1.50918,-1.22124 0.98295,-0.45672 2.29355,-0.45672 1.3801,0 2.41269,0.4468 1.0326,0.43686 1.58861,1.23116 0.55601,0.78438 0.55601,1.79711 h -2.99849 q 0,-0.64537 -0.38723,-1.0028 -0.38722,-0.36737 -1.18152,-0.36737 -0.6553,0 -1.05245,0.30779 -0.38722,0.3078 -0.38722,0.79431 0,0.46665 0.43686,0.75458 0.4468,0.28794 1.50918,0.48651 1.27088,0.2383 2.15454,0.62552 0.88366,0.37729 1.39996,1.05245 0.52623,0.67516 0.52623,1.71768 0,0.94323 -0.56594,1.69782 -0.55602,0.74466 -1.59854,1.1716 -1.03259,0.42693 -2.40276,0.42693 -1.44961,0 -2.51198,-0.52622 -1.05246,-0.53616 -1.60847,-1.37017 -0.54608,-0.83402 -0.54608,-1.73754 h 2.8297 q 0.0298,0.77444 0.55601,1.15174 0.52623,0.36736 1.35032,0.36736 0.76451,0 1.17159,-0.28793 0.41701,-0.29786 0.41701,-0.7943 0,-0.3078 -0.18864,-0.5163 -0.17872,-0.21843 -0.6553,-0.40708 -0.46666,-0.18865 -1.33046,-0.37729 z" />
        </g>
      </g>
    </g>
  </g>
</svg>
